<svg xmlns="http://www.w3.org/2000/svg" xmlns:xlink="http://www.w3.org/1999/xlink" width="567" height="598.565" viewBox="0 0 567 598.565"><defs><linearGradient id="a" x1="0.5" x2="0.5" y2="1" gradientUnits="objectBoundingBox"><stop offset="0" stop-color="#1487fd"/><stop offset="1" stop-color="#42a0ff"/></linearGradient><linearGradient id="b" x1="0.5" x2="0.5" y2="1" gradientUnits="objectBoundingBox"><stop offset="0" stop-color="#f6f6f6"/><stop offset="1" stop-color="#ececec"/></linearGradient><linearGradient id="c" x1="0.5" x2="0.5" y2="1" gradientUnits="objectBoundingBox"><stop offset="0" stop-color="#fff"/><stop offset="1" stop-color="#f3f3f3"/></linearGradient><linearGradient id="d" x1="0.5" x2="0.5" y2="1" gradientUnits="objectBoundingBox"><stop offset="0" stop-color="#f3f3f3"/><stop offset="1" stop-color="#fff"/></linearGradient></defs><g transform="translate(0 20)"><g transform="translate(10)"><g fill="#fff" stroke="#ccc" stroke-width="1" opacity="0.3"><circle cx="278.5" cy="278.5" r="278.5" stroke="none"/><circle cx="278.5" cy="278.5" r="278" fill="none"/></g></g><g transform="translate(98 88)" fill="#fff" stroke="#ccc" stroke-width="1" opacity="0.3"><circle cx="190.5" cy="190.5" r="190.5" stroke="none"/><circle cx="190.5" cy="190.5" r="190" fill="none"/></g><g transform="translate(519.539 144.621)"><g transform="translate(10.461 10.379)" fill="none" stroke="#e8e8e8" stroke-width="1"><circle cx="13" cy="13" r="13" stroke="none"/><circle cx="13" cy="13" r="12.5" fill="none"/></g><g transform="translate(0.461 0.379)" fill="none" stroke="#e8e8e8" stroke-width="1"><circle cx="23.5" cy="23.5" r="23.5" stroke="none"/><circle cx="23.5" cy="23.5" r="23" fill="none"/></g><circle cx="5" cy="5" r="5" transform="translate(18.461 18.379)" fill="url(#a)"/></g><g transform="translate(0.5 338.23)"><g transform="translate(10.5 10.77)" fill="none" stroke="#e8e8e8" stroke-width="1"><ellipse cx="13" cy="12.5" rx="13" ry="12.5" stroke="none"/><ellipse cx="13" cy="12.5" rx="12.5" ry="12" fill="none"/></g><g transform="translate(-0.5 -0.23)" fill="none" stroke="#e8e8e8" stroke-width="1"><circle cx="23.5" cy="23.5" r="23.5" stroke="none"/><circle cx="23.5" cy="23.5" r="23" fill="none"/></g><ellipse cx="5" cy="5.5" rx="5" ry="5.5" transform="translate(18.5 17.77)" fill="#fb0"/></g></g><g transform="translate(139)"><path d="M33.332,0h221.98a33.332,33.332,0,0,1,33.332,33.332v531.9a33.332,33.332,0,0,1-33.332,33.332H33.332A33.332,33.332,0,0,1,0,565.233V33.332A33.332,33.332,0,0,1,33.332,0Z" fill="url(#b)"/><path d="M31.518,0H254.29a31.436,31.436,0,0,1,31.518,31.354v533.02a31.436,31.436,0,0,1-31.518,31.354H31.518A31.436,31.436,0,0,1,0,564.374V31.354A31.436,31.436,0,0,1,31.518,0Z" transform="translate(1.418 1.418)" fill="url(#c)"/><g transform="translate(175.275 11.852)"><circle cx="5" cy="5" r="5" transform="translate(0.369 0.43)" fill="url(#d)"/><ellipse cx="4.5" cy="5" rx="4.5" ry="5" transform="translate(0.369 0.43)" fill="url(#c)"/><circle cx="3.5" cy="3.5" r="3.5" transform="translate(1.369 1.43)" fill="#f3f3f3"/><circle cx="1" cy="1" r="1" transform="translate(4.369 1.43)" fill="#fff"/></g><path d="M2.982.5H41.988a2.482,2.482,0,0,1,0,4.964H2.982A2.482,2.482,0,0,1,2.982.5Z" transform="translate(121.837 14.748)" fill="#f3f3f3" stroke="#f9f8f8" stroke-width="1"/><path d="M239,575.871H26.949A26.98,26.98,0,0,1,0,548.921V26.95A26.98,26.98,0,0,1,26.949,0H55.5a4.831,4.831,0,0,1,3.709,3.667c.117.513.239,1.185.38,1.962.272,1.5.609,3.351,1.111,5.225C61.352,13.279,64.218,21.2,73.845,21.3c3.631.037,26.271.045,44.625.045,33.762,0,72.5-.027,74.314-.045,9.627-.1,12.492-8.02,13.141-10.445.5-1.879.84-3.736,1.112-5.229.142-.781.263-1.448.379-1.958A4.675,4.675,0,0,1,211.091,0H239A26.98,26.98,0,0,1,265.95,26.95V548.921A26.98,26.98,0,0,1,239,575.871Z" transform="translate(11.347 11.348)" fill="#e3e3e3"/><path d="M239,575.871H26.949A26.98,26.98,0,0,1,0,548.921V26.95A26.98,26.98,0,0,1,26.949,0H55.5a4.831,4.831,0,0,1,3.709,3.667c.117.513.239,1.185.38,1.962.272,1.5.609,3.351,1.111,5.225C61.352,13.279,64.218,21.2,73.845,21.3c3.631.037,26.271.045,44.625.045,33.762,0,72.5-.027,74.314-.045,9.627-.1,12.492-8.02,13.141-10.445.5-1.879.84-3.736,1.112-5.229.142-.781.263-1.448.379-1.958A4.675,4.675,0,0,1,211.091,0H239A26.98,26.98,0,0,1,265.95,26.95V548.921A26.98,26.98,0,0,1,239,575.871Z" transform="translate(11.347 11.348)" fill="#e3e3e3"/><path d="M1.773,0h88.65a1.773,1.773,0,0,1,0,3.546H1.773A1.773,1.773,0,1,1,1.773,0Z" transform="translate(98.579 575.16)" fill="#e2e2e2"/></g></svg>